<?xml version="1.0" encoding="UTF-8" standalone="no"?>
<!-- Created with Inkscape (http://www.inkscape.org/) -->

<svg width="793.70081" height="1122.5197" viewBox="0 0 210 297" version="1.1" id="svg15306" sodipodi:docname="close.svg" inkscape:version="1.1.1 (3bf5ae0d25, 2021-09-20)" xmlns:inkscape="http://www.inkscape.org/namespaces/inkscape" xmlns:sodipodi="http://sodipodi.sourceforge.net/DTD/sodipodi-0.dtd" xmlns="http://www.w3.org/2000/svg" xmlns:svg="http://www.w3.org/2000/svg">
  <sodipodi:namedview id="namedview16427" pagecolor="#505050" bordercolor="#eeeeee" borderopacity="1" inkscape:pageshadow="0" inkscape:pageopacity="0" inkscape:pagecheckerboard="0" showgrid="false" inkscape:zoom="1" inkscape:cx="396.5" inkscape:cy="561.5" inkscape:window-width="1920" inkscape:window-height="1017" inkscape:window-x="1912" inkscape:window-y="-8" inkscape:window-maximized="1" inkscape:current-layer="svg15306" />
  <defs id="defs15303" />
  <path id="rect15412" style="fill:none;fill-opacity:1;stroke-width:0.264583;stroke-linecap:round;stroke-linejoin:round" d="M 34.131248,89.429169 H 179.65208 V 234.95 H 34.131248 Z" />
  <g id="g16535">
    <path id="rect15601" style="fill:#e2e2e2;stroke-width:0.264583;stroke-linecap:round;stroke-linejoin:round" d="m 53.197213,112.98527 4.490128,-4.49013 c 0.310943,-0.31095 0.81159,-0.31094 1.122532,0 L 160.58611,210.27137 c 0.31093,0.31094 0.31094,0.81159 0,1.12253 l -4.49013,4.49013 c -0.31094,0.31094 -0.8116,0.31094 -1.12253,0 L 53.197213,114.1078 c -0.310942,-0.31094 -0.310936,-0.8116 0,-1.12253 z" />
  </g>
  <g id="g16538">
    <path id="path16116" style="fill:#e2e2e2;stroke-width:0.264583;stroke-linecap:round;stroke-linejoin:round" d="m 156.09598,108.49514 4.49013,4.49013 c 0.31094,0.31094 0.31094,0.81159 0,1.12253 L 58.809873,215.88403 c -0.310936,0.31094 -0.811589,0.31094 -1.122532,0 l -4.490128,-4.49013 c -0.310936,-0.31093 -0.310936,-0.81159 0,-1.12253 L 154.97345,108.49514 c 0.31094,-0.31094 0.81159,-0.31094 1.12253,0 z" />
  </g>
</svg>
