<?xml version="1.0" encoding="UTF-8" standalone="no"?>
<!-- Created with Inkscape (http://www.inkscape.org/) -->

<svg width="793.70081" height="1122.5197" viewBox="0 0 210 297" version="1.1" id="svg5" xmlns="http://www.w3.org/2000/svg" xmlns:svg="http://www.w3.org/2000/svg">
  <defs id="defs2" />
  <g id="layer1">
    <g id="g6502" transform="translate(0,-1.1806523e-5)">
      <path style="color:black;solid-color:black;fill:#090009;fill-opacity:0.66;stroke:none;stroke-width:0.264583;stroke-linejoin:round;stroke-miterlimit:4;stroke-dasharray:none;paint-order:stroke fill markers" d="m 105,75.739626 c -2.11945,1.9e-5 -4.07794,0.586094 -5.137941,1.537509 L 33.042847,137.2722 c -2.282636,2.05033 0.57131,4.61283 5.137942,4.61326 H 171.81921 c 4.56663,-4.3e-4 7.42058,-2.56293 5.13795,-4.61326 L 110.13794,77.277135 c -1.06,-0.951415 -3.01849,-1.53749 -5.13794,-1.537509 z" id="path4928" />
      <path style="color:black;solid-color:black;fill:#090009;fill-opacity:0.66;stroke:none;stroke-width:0.264583;stroke-linejoin:round;stroke-miterlimit:4;stroke-dasharray:none;paint-order:stroke fill markers" d="m 105,221.26039 c 2.11945,-2e-5 4.07794,-0.58609 5.13794,-1.53751 l 66.81921,-59.99506 c 2.28264,-2.05033 -0.57131,-4.61284 -5.13794,-4.61326 H 38.180795 c -4.56663,4.2e-4 -7.42058,2.56293 -5.13795,4.61326 l 66.819222,59.99506 c 1.060003,0.95142 3.018493,1.53749 5.137933,1.53751 z" id="path5158" />
    </g>
  </g>
</svg>
